# xmcd
#
# Track frame offsets:
#	150
#	17105
#	35012
#	50661
#	75698
#	98177
#	112448
#	133066
#	156111
#	172340
#	192646
#	213495
#	227531
#	257987
#	276448
#	305575
#
# Disc length: 4503 seconds
#
# Revision: 0
# Processed by: cddbd v1.5.2PL0 Copyright (c) Steve Scherf et al.
# Submitted via: EasyCDDAExtractor 16.0.6.1
#
DISCID=fa119510
DTITLE=Συλλογικός δίσκος - The best disco in town 3
DYEAR=1996
DGENRE=Disco
TTITLE0=Leonore O' Malley - First be a woman
TTITLE1=Lipps Inc. - Funky town
TTITLE2=Boney M. - Daddy cool
TTITLE3=Modern Talking - You're my heart you're my soul
TTITLE4=Tom Tom Club - Wordy Rappinghood
TTITLE5=Carl Douglas - Kung fu fighting
TTITLE6=Baccara - Yes sir I can boogie
TTITLE7=Amanda Lear - Enigma
TTITLE8=Eruption - One way ticket
TTITLE9=Tracks - Long train running
TTITLE10=Ryan Paris - Dolce vita
TTITLE11=Hues Corporation - Rock the boat
TTITLE12=Evelyn Thomas - High energy
TTITLE13=Kurtis Blow - The breaks
TTITLE14=Sugarhill Gang - Rapper's Delight
TTITLE15=Grandmaster Flash - The message
EXTD=
EXTT0=
EXTT1=
EXTT2=
EXTT3=
EXTT4=
EXTT5=
EXTT6=
EXTT7=
EXTT8=
EXTT9=
EXTT10=
EXTT11=
EXTT12=
EXTT13=
EXTT14=
EXTT15=
PLAYORDER=
